<?xml version="1.0" encoding="UTF-8" standalone="no"?>
<!-- Created with Inkscape (http://www.inkscape.org/) -->

<svg
   xmlns:dc="http://purl.org/dc/elements/1.1/"
   xmlns:cc="http://creativecommons.org/ns#"
   xmlns:rdf="http://www.w3.org/1999/02/22-rdf-syntax-ns#"
   xmlns:svg="http://www.w3.org/2000/svg"
   xmlns="http://www.w3.org/2000/svg"
   xmlns:sodipodi="http://sodipodi.sourceforge.net/DTD/sodipodi-0.dtd"
   xmlns:inkscape="http://www.inkscape.org/namespaces/inkscape"
   width="16"
   height="16"
   viewBox="0 0 16 16"
   id="svg2"
   version="1.1"
   inkscape:version="0.92.4 (5da689c313, 2019-01-14)"
   inkscape:export-filename="/home/djrm/Projects/godot/tools/editor/icons/icon_node.png"
   inkscape:export-xdpi="90"
   inkscape:export-ydpi="90"
   sodipodi:docname="icon_qodot_node.svg">
  <defs
     id="defs4" />
  <sodipodi:namedview
     id="base"
     pagecolor="#ffffff"
     bordercolor="#666666"
     borderopacity="1.0"
     inkscape:pageopacity="0.0"
     inkscape:pageshadow="2"
     inkscape:zoom="31.999999"
     inkscape:cx="9.2742768"
     inkscape:cy="5.9794586"
     inkscape:document-units="px"
     inkscape:current-layer="layer1"
     showgrid="false"
     units="px"
     inkscape:snap-bbox="true"
     inkscape:bbox-paths="true"
     inkscape:bbox-nodes="true"
     inkscape:snap-bbox-edge-midpoints="true"
     inkscape:snap-bbox-midpoints="true"
     inkscape:snap-object-midpoints="true"
     inkscape:snap-center="true"
     inkscape:window-width="1849"
     inkscape:window-height="942"
     inkscape:window-x="2365"
     inkscape:window-y="478"
     inkscape:window-maximized="0">
    <inkscape:grid
       type="xygrid"
       id="grid3336"
       empspacing="4" />
  </sodipodi:namedview>
  <metadata
     id="metadata7">
    <rdf:RDF>
      <cc:Work
         rdf:about="">
        <dc:format>image/svg+xml</dc:format>
        <dc:type
           rdf:resource="http://purl.org/dc/dcmitype/StillImage" />
        <dc:title></dc:title>
      </cc:Work>
    </rdf:RDF>
  </metadata>
  <g
     inkscape:label="Layer 1"
     inkscape:groupmode="layer"
     id="layer1"
     transform="translate(0,-1036.3622)">
    <g
       transform="matrix(0.00898883,0,0,0.00898883,2.84873,1036.9616)"
       id="g8"
       style="fill:#e0e0e0;fill-opacity:0.99607843">
      <path
         sodipodi:type="inkscape:offset"
         inkscape:radius="32.247818"
         inkscape:original="M 805.49219 48.865234 L 805.49219 52 L 805.49219 70.470703 C 908.63676 125.4219 990.75756 219.02053 1030.5371 328.76562 C 1072.5343 442.84389 1069.0608 572.88678 1019.4355 684.0293 C 962.84256 813.15825 847.75434 914.65851 712.625 954.68555 C 687.95498 962.05941 662.7661 967.4194 637.26562 970.68359 C 637.37347 905.40191 636.93661 840.04476 637.35156 774.81055 C 644.27173 753.89399 667.02241 744.70589 686.79883 740.29102 C 696.25394 738.22707 705.90322 736.98982 715.58203 736.76953 C 714.41755 731.86565 718.02354 722.1913 713.58203 720.56445 L 439 720.56445 C 440.15426 725.49354 436.59893 734.98734 440.9375 736.83008 C 464.02438 738.2287 488.57642 742.59448 506.58789 758.30469 C 513.72262 764.95503 519.23908 774.34645 517.41992 784.43945 L 517.41992 970.64062 C 392.2186 952.28136 280.08237 877.51602 203.18555 778.49805 C 146.20758 705.03793 105.92922 616.34944 98.074219 523.1582 C 90.131888 410.66597 124.62307 296.10332 192.38281 205.89258 C 233.9121 150.23193 287.72076 103.61704 348.8125 70.462891 C 348.8205 63.264976 348.82683 56.067058 348.83203 48.869141 C 226.43763 103.66249 125.42782 204.32365 70.367188 326.61133 C 10.634796 457.1454 4.9961598 611.01761 54.242188 745.77539 C 100.18371 873.54309 194.5137 982.99051 313.99414 1047.4492 C 376.81007 1081.5901 446.33117 1103.3409 517.41992 1110.9785 C 517.56059 1169.4421 517.13902 1227.9564 517.62891 1286.3887 C 536.50698 1390.7196 555.38596 1495.0499 574.26367 1599.3809 C 595.24637 1494.6025 616.32947 1389.8338 637.24609 1285.0488 C 637.24709 1227.0293 637.249 1169.0098 637.25 1110.9902 C 753.86537 1099.5192 866.94739 1050.9022 953.70898 971.83203 C 1036.6427 897.08153 1094.4372 795.63679 1118.3398 686.71289 C 1142.8039 576.4452 1136.0436 458.67677 1094.3887 353.33398 C 1044.4835 224.74362 944.8252 116.42175 820.77539 56.089844 C 815.72077 53.598792 810.60447 51.234804 805.49219 48.865234 z "
         style="fill:#e0e0e0;fill-opacity:0.99607843;stroke:none;stroke-width:5;stroke-miterlimit:10;stroke-opacity:1"
         id="path6"
         d="m 347.90625,16.636719 a 32.251043,32.251043 0 0 0 -12.25,2.798828 C 205.88469,77.531491 99.412299,183.61822 41.001953,313.29102 -22.348317,451.80048 -28.265288,613.88282 23.927734,756.76758 72.647329,892.19719 172.02966,1007.4904 298.65234,1075.8125 c 58.00997,31.5205 121.31762,53.0204 186.51172,63.377 -0.002,48.987 -0.19484,98.1365 0.21875,147.4687 a 32.251043,32.251043 0 0 0 0.51367,5.4727 c 18.87811,104.3311 37.75711,208.6614 56.63477,312.9921 a 32.251043,32.251043 0 0 0 63.35156,0.5899 c 20.97874,-104.7586 42.06315,-209.5337 62.98633,-314.3516 a 32.251043,32.251043 0 0 0 0.625,-6.3125 c 8.4e-4,-48.5498 0.003,-97.1 0.004,-145.6504 112.94142,-16.8214 220.92348,-66.2925 305.84961,-143.65817 88.14404,-79.4662 149.14894,-186.66163 174.48434,-302.08984 25.7675,-116.18424 18.7794,-240.2345 -25.416,-352.06836 C 1071.4778,205.24135 966.47079,91.107321 834.92773,27.115234 829.42805,24.407001 824.10868,21.95088 819.05273,19.607422 A 32.251043,32.251043 0 0 0 773.24414,48.865234 V 52 70.470703 a 32.251043,32.251043 0 0 0 17.08594,28.460938 c 96.0021,51.145979 172.95277,138.924249 209.88872,240.824219 a 32.251043,32.251043 0 0 0 0.057,0.15039 c 39.0531,106.08119 35.7505,227.87147 -10.28517,330.97461 a 32.251043,32.251043 0 0 0 -0.0898,0.20312 C 937.26564,791.18147 829.14264,886.53883 703.4668,923.76562 a 32.251043,32.251043 0 0 0 -0.0762,0.0234 c -11.19816,3.34713 -22.50938,6.2295 -33.90429,8.67578 -0.0393,-50.21706 -0.16903,-100.33931 0.10156,-150.23828 0.86271,-0.9191 2.16446,-1.94384 4.36719,-3.27734 4.48441,-2.7148 12.01568,-5.42153 19.80273,-7.16602 7.58488,-1.65065 15.16509,-2.60516 22.5586,-2.77343 a 32.251043,32.251043 0 0 0 30.64062,-39.69141 c 2.24778,9.46588 0.68077,5.89079 1.03906,0.11719 0.17915,-2.88681 0.72749,-6.86388 -1.11718,-14.20313 -1.84468,-7.33925 -10.07914,-20.50769 -22.20508,-24.94922 a 32.251043,32.251043 0 0 0 -11.0918,-1.96679 H 439 a 32.251043,32.251043 0 0 0 -31.40234,39.58203 c -2.13044,-9.10803 -0.65038,-5.75562 -1.00782,-0.0645 -0.17902,2.85053 -0.68774,6.79348 1.02344,13.91016 1.71118,7.11668 9.00286,19.79227 20.7168,24.76758 a 32.251043,32.251043 0 0 0 10.6582,2.50781 c 20.32647,1.23139 36.93313,5.44255 46.25977,13.48242 a 32.251043,32.251043 0 0 0 -0.0762,1.9375 V 931.33789 C 384.2764,906.36086 293.26933,841.91584 228.66602,758.73438 l -0.0117,-0.0156 C 174.92035,689.43588 137.4999,606.28431 130.23242,520.66211 122.92233,416.31754 155.17118,309.12943 218.16797,225.25977 a 32.251043,32.251043 0 0 0 0.0606,-0.082 c 38.7059,-51.87653 89.03359,-95.47481 145.96484,-126.371089 a 32.251043,32.251043 0 0 0 16.86719,-28.308594 c 0.008,-7.202903 0.0143,-14.404177 0.0195,-21.605469 A 32.251043,32.251043 0 0 0 347.90625,16.636719 Z M 484.59961,781.89453 c 0.6695,0.62405 0.56402,0.47412 0.65039,0.54102 a 32.251043,32.251043 0 0 0 0,0.0449 z" />
    </g>
  </g>
</svg>
